<svg width="16" height="20" viewBox="0 0 16 20" fill="none" xmlns="http://www.w3.org/2000/svg">
<path d="M7.46425 20C12.1609 20 15.0834 16.5392 15.0834 12.0742C15.0834 10.3908 14.8093 8.87083 12.8984 8.41417C13.3634 7.14083 14.7051 3.4575 14.7051 2.2775C14.7051 1.23833 14.0801 0.3675 12.9659 0.3675C11.1901 0.3675 9.59842 5.51167 9.10009 6.73833C8.71425 5.625 6.90759 0 5.31509 0C4.07759 0 3.49675 0.894167 3.49675 2.01917C3.49675 3.39833 4.85759 6.9725 5.35092 8.3475C5.10092 8.2575 4.83009 8.17917 4.55425 8.17917C3.62259 8.17917 2.63175 9.31583 2.63175 10.2342C2.63175 10.5817 2.82675 11.07 2.95009 11.3942C1.48175 11.785 0.916753 12.7458 0.916753 14.195C0.912586 17.015 3.63592 20 7.46425 20ZM11.4893 4.21917C11.6493 3.73833 12.3293 1.7075 12.9659 1.7075C13.3084 1.7075 13.4001 2.055 13.4001 2.3325C13.4001 3.07833 11.8643 7.2 11.5251 8.11333L10.1718 7.87917L11.4893 4.21917ZM4.74675 1.8875V1.88667C4.74675 1.42167 5.32425 0.101667 6.58925 3.72667L7.96675 7.645C7.34592 7.59417 6.86425 7.5275 6.55842 7.7C6.12425 6.575 4.74675 3.02417 4.74675 1.8875ZM4.65509 9.53083L4.65592 9.53167C5.82175 9.53167 7.32675 13.2267 7.32675 13.7267C7.32675 13.9258 7.13175 14.1717 6.90509 14.1717C6.07259 14.1717 3.84342 11.1675 3.84342 10.355C3.84675 10.0542 4.34842 9.53083 4.65509 9.53083ZM3.31509 12.5892C3.76842 12.5892 5.47592 14.945 5.47592 15.445C5.47592 15.6367 5.16925 15.7692 5.01092 15.7692C4.37009 15.7692 4.11925 15.1633 2.97759 13.7617C1.79509 14.9217 3.79342 17.1558 5.29842 17.1558C6.33675 17.1558 7.01342 16.2108 6.81092 15.515C6.95842 15.515 7.14092 15.5267 7.27675 15.4917C7.32092 16.55 7.63925 17.8117 8.93675 17.9017C8.93675 17.8667 9.01675 17.6242 9.01675 17.6125C9.01675 16.9325 8.59509 16.3392 8.59509 15.6475C8.59509 14.5417 9.45842 13.4717 10.3343 12.8467C10.6526 12.6125 11.0393 12.4675 11.4126 12.335C11.7993 12.1908 12.2093 12.0225 12.5026 11.7333C12.4584 11.2958 12.2759 10.9092 11.8301 10.9092C10.7276 10.9092 7.03009 11.0658 7.03009 9.35833C7.03009 9.09667 7.03425 8.84667 7.72342 8.84667C9.00925 8.84667 12.2734 9.15917 13.2284 9.98333C13.9484 10.6125 14.1959 14.405 11.9943 16.8075L11.9918 16.8083C10.8334 18.0583 9.35259 18.7067 7.62509 18.7067C5.26092 18.7067 3.39342 17.4333 2.49425 15.2575C1.81342 13.5625 2.64592 12.5892 3.31509 12.5892ZM8.06592 11.8858C8.45342 12.0075 8.85092 12.0433 9.24925 12.1208C8.95425 12.3317 8.69259 12.59 8.44092 12.8667C8.32925 12.535 8.19342 12.2108 8.06592 11.8858Z" fill="#505F79"/>
</svg>
